<?xml version="1.0" standalone="no"?><!DOCTYPE svg PUBLIC "-//W3C//DTD SVG 1.1//EN" "http://www.w3.org/Graphics/SVG/1.1/DTD/svg11.dtd"><svg t="1666495362072" class="icon" viewBox="0 0 1024 1024" version="1.1" xmlns="http://www.w3.org/2000/svg" p-id="3120" xmlns:xlink="http://www.w3.org/1999/xlink" width="200" height="200"><path d="M849.170732 0c97.404878 0 174.829268 77.42439 174.829268 174.829268v674.341464c0 97.404878-77.42439 174.829268-174.829268 174.829268H174.829268c-97.404878 0-174.829268-77.42439-174.829268-174.829268V174.829268c0-97.404878 77.42439-174.829268 174.829268-174.829268h674.341464zM539.473171 324.682927c-62.439024 0-117.385366 37.463415-142.360976 89.912195-14.985366-9.990244-29.970732-14.985366-47.453658-14.985366-39.960976 0-72.429268 32.468293-72.429269 72.429268 0 7.492683 0 14.985366 2.497561 22.478049-32.468293 17.482927-52.44878 52.44878-52.44878 92.409756 0 57.443902 47.453659 102.4 104.897561 104.897561H654.360976c57.443902 0 104.897561-47.453659 104.897561-104.897561 0-42.458537-27.473171-79.921951-64.936586-94.907317v-9.990244c2.497561-87.414634-67.434146-157.346341-154.84878-157.346341z" fill="#0E7EB7" p-id="3121"></path></svg>