<?xml version="1.0" standalone="no"?><!DOCTYPE svg PUBLIC "-//W3C//DTD SVG 1.1//EN" "http://www.w3.org/Graphics/SVG/1.1/DTD/svg11.dtd"><svg t="1666495209791" class="icon" viewBox="0 0 1024 1024" version="1.1" xmlns="http://www.w3.org/2000/svg" p-id="1402" xmlns:xlink="http://www.w3.org/1999/xlink" width="200" height="200"><path d="M914.251753 987.355429H109.680324a36.644571 36.644571 0 0 1-36.571428-36.571429v-877.714286A36.571429 36.571429 0 0 1 109.680324 36.571429h512.073143A329.435429 329.435429 0 0 1 950.823181 365.568v585.216c0 20.114286-16.457143 36.571429-36.571428 36.571429z m-694.784-219.648a73.142857 73.142857 0 0 0 0 146.285714h584.996571a73.142857 73.142857 0 1 0 0-146.285714H219.467753z m0-219.355429a73.142857 73.142857 0 0 0 0 146.285714h584.996571a73.142857 73.142857 0 1 0 0-146.285714H219.467753z m0-219.355429a73.142857 73.142857 0 1 0 0 146.285715h584.996571a73.142857 73.142857 0 0 0 0-146.285715H219.467753z m0-219.355428a73.142857 73.142857 0 1 0 0 146.285714H585.108896a73.142857 73.142857 0 0 0 72.996571-73.289143 72.265143 72.265143 0 0 0-72.996571-72.996571H219.467753z" p-id="1403" data-spm-anchor-id="a313x.7781069.0.i2" class="" fill="#1296db"></path><path d="M914.251753 950.784v-105.764571c-2.194286 58.514286-50.541714 105.545143-109.787429 105.545142H219.467753A109.787429 109.787429 0 0 1 109.680324 840.996571c0-59.611429 47.689143-108.251429 106.934857-109.860571a109.714286 109.714286 0 0 1 0-219.282286 109.787429 109.787429 0 0 1 0.073143-219.428571A109.860571 109.860571 0 0 1 109.680324 182.637714c0-59.757714 48.274286-108.544 107.958857-109.568H109.680324v877.714286h804.571429m0-113.810286v-211.382857a109.714286 109.714286 0 0 1-106.934857 105.545143c57.929143 1.462857 104.886857 48.054857 106.934857 105.837714m0-219.355428V406.016a110.006857 110.006857 0 0 1-106.934857 105.837714c57.929143 1.462857 104.886857 47.981714 106.934857 105.764572m0-219.648v-32.402286A292.790857 292.790857 0 0 0 621.753467 73.142857h-32.768a109.714286 109.714286 0 0 1 0.146286 219.282286h215.332571c59.245714 0 107.666286 47.030857 109.787429 105.545143M914.251753 1024H109.680324a73.142857 73.142857 0 0 1-73.142857-73.142857v-877.714286A73.142857 73.142857 0 0 1 109.680324 0h512.073143A366.006857 366.006857 0 0 1 987.39461 365.568v585.216a73.142857 73.142857 0 0 1-73.142857 73.142857z m-694.784-219.648a36.571429 36.571429 0 0 0 0 73.142857h584.996571a36.644571 36.644571 0 1 0 0-73.142857H219.467753z m0-219.355429a36.571429 36.571429 0 0 0 0 73.142858h584.996571a36.644571 36.644571 0 1 0 0-73.142858H219.467753z m0-219.355428a36.571429 36.571429 0 1 0 0 73.142857h584.996571a36.644571 36.644571 0 0 0 0-73.142857H219.467753z m0-219.355429a36.571429 36.571429 0 1 0 0 73.142857H585.108896a36.644571 36.644571 0 0 0 0-73.142857H219.467753z" p-id="1404" data-spm-anchor-id="a313x.7781069.0.i0" class="" fill="#1296db"></path></svg>